<?xml version="1.0" standalone="no"?>
<!DOCTYPE svg PUBLIC "-//W3C//DTD SVG 20010904//EN"
 "http://www.w3.org/TR/2001/REC-SVG-20010904/DTD/svg10.dtd">
<svg version="1.0" xmlns="http://www.w3.org/2000/svg"
 width="512.000000pt" height="512.000000pt" viewBox="0 0 512.000000 512.000000"
 preserveAspectRatio="xMidYMid meet">
<metadata>
Created by potrace 1.11, written by Peter Selinger 2001-2013
</metadata>
<g transform="translate(0.000000,512.000000) scale(0.100000,-0.100000)"
fill="#000000" stroke="none">
<path d="M3020 4900 c-332 -71 -621 -296 -760 -593 -58 -125 -246 -634 -237
-643 6 -7 1109 -85 1115 -80 2 3 -8 72 -22 155 -14 83 -35 238 -47 344 -19
166 -21 205 -11 292 13 117 44 228 112 405 28 71 50 132 50 135 0 11 -119 3
-200 -15z"/>
<path d="M1794 3556 c-32 -15 -59 -36 -71 -57 -24 -39 -287 -739 -280 -745 5
-5 516 45 1287 126 261 27 560 58 663 69 103 10 190 21 194 24 8 9 -145 377
-174 414 -29 39 -95 79 -143 87 -19 4 -318 26 -665 51 -346 24 -659 47 -695
50 -55 5 -73 2 -116 -19z"/>
<path d="M3385 2854 c-170 -19 -692 -72 -1160 -119 -467 -48 -868 -91 -890
-96 -87 -22 -171 -107 -200 -202 -21 -71 -186 -750 -182 -753 2 -3 575 -35
1962 -109 462 -25 946 -52 1075 -59 129 -8 237 -12 239 -10 3 3 -15 84 -38
182 -24 97 -90 374 -147 614 -57 240 -110 450 -118 466 -22 43 -90 99 -133
111 -50 14 -48 14 -408 -25z"/>
<path d="M750 1581 c-76 -23 -168 -98 -202 -164 -18 -37 -139 -381 -289 -827
-84 -248 -88 -290 -35 -348 l34 -37 2279 -3 c1596 -2 2289 0 2315 8 75 21 99
92 67 195 -32 106 -268 744 -291 789 -24 48 -119 141 -168 166 -19 10 -60 23
-90 29 -30 6 -352 27 -715 46 -363 20 -851 47 -1085 60 -780 46 -1694 95
-1745 94 -27 0 -61 -4 -75 -8z"/>
</g>
</svg>
