<?xml version="1.0" standalone="no"?>
<!DOCTYPE svg PUBLIC "-//W3C//DTD SVG 20010904//EN"
 "http://www.w3.org/TR/2001/REC-SVG-20010904/DTD/svg10.dtd">
<svg version="1.0" xmlns="http://www.w3.org/2000/svg"
 width="512.000000pt" height="512.000000pt" viewBox="0 0 512.000000 512.000000"
 preserveAspectRatio="xMidYMid meet">
<metadata>
Created by potrace 1.11, written by Peter Selinger 2001-2013
</metadata>
<g transform="translate(0.000000,512.000000) scale(0.100000,-0.100000)"
fill="#000000" stroke="none">
<path d="M2312 5099 c-471 -42 -916 -214 -1312 -507 -150 -112 -390 -352 -502
-502 -254 -343 -413 -713 -482 -1119 -23 -135 -23 -707 0 -842 87 -515 325
-982 689 -1358 381 -393 850 -642 1400 -744 108 -20 152 -22 435 -22 283 0
327 2 435 22 622 116 1150 425 1546 906 222 270 392 598 484 934 249 909 -11
1862 -686 2518 -428 416 -970 663 -1569 715 -132 11 -303 11 -438 -1z m464
-288 c314 -67 602 -304 720 -591 68 -166 67 -149 73 -775 7 -632 2 -779 -28
-890 -12 -42 -21 -77 -21 -79 0 -2 17 -6 38 -10 22 -3 51 -15 66 -27 49 -39
56 -65 56 -226 0 -172 -10 -204 -77 -238 -38 -20 -39 -21 -65 -128 -59 -241
-213 -456 -425 -593 -43 -27 -53 -39 -53 -61 0 -16 16 -207 36 -426 19 -220
33 -404 31 -411 -5 -12 -111 -35 -337 -73 -132 -21 -339 -21 -480 1 -328 51
-360 58 -360 80 0 12 20 206 45 431 25 226 45 411 45 411 0 1 -30 21 -67 45
-98 63 -248 218 -307 317 -53 89 -111 245 -123 331 -7 47 -12 56 -34 61 -42
12 -76 39 -93 75 -12 25 -16 67 -16 183 0 138 2 151 23 183 26 40 79 69 125
69 37 0 37 1 16 41 -8 17 -24 65 -36 107 -19 74 -20 100 -18 707 1 688 3 713
60 863 80 207 223 376 425 499 130 78 248 118 440 147 59 9 252 -4 341 -23z"/>
<path d="M2385 4751 c-381 -63 -672 -320 -776 -686 -23 -79 -23 -91 -27 -692
-4 -675 0 -729 55 -840 l29 -58 881 -3 c877 -2 882 -2 893 18 6 11 21 55 33
98 20 74 21 99 25 667 4 635 -1 731 -44 861 -86 265 -298 485 -558 581 -111
41 -184 54 -321 58 -77 2 -162 0 -190 -4z m363 -340 c103 -37 177 -86 251
-167 68 -74 114 -155 138 -245 16 -57 18 -115 18 -529 0 -357 -3 -478 -14
-520 -41 -168 -168 -325 -321 -398 -112 -52 -163 -64 -292 -64 -91 1 -119 5
-190 29 -46 16 -110 46 -141 67 -76 51 -179 164 -216 237 -59 119 -62 155 -59
679 3 454 5 477 25 531 29 78 45 106 98 177 83 110 241 207 377 231 96 18 235
6 326 -28z"/>
<path d="M2364 4346 c-137 -44 -255 -148 -319 -280 -51 -106 -58 -196 -53
-674 4 -373 6 -401 26 -462 88 -266 371 -421 650 -355 194 46 362 214 401 403
14 68 15 898 1 973 -34 184 -197 354 -386 403 -93 24 -233 20 -320 -8z"/>
<path d="M1515 2387 c-36 -12 -47 -63 -43 -201 3 -110 5 -119 27 -137 22 -18
54 -19 1041 -19 987 0 1019 1 1041 19 23 18 24 27 27 146 4 138 -6 182 -42
190 -36 9 -2024 11 -2051 2z"/>
<path d="M1616 1913 c11 -62 55 -195 82 -248 84 -167 235 -316 407 -403 147
-74 366 -113 533 -94 344 39 617 225 766 519 27 54 76 211 76 244 0 18 -25 19
-935 19 l-936 0 7 -37z"/>
<path d="M2110 1163 c0 -4 -18 -174 -40 -377 -23 -203 -37 -372 -33 -376 9 -8
226 -45 353 -60 106 -13 244 -13 335 0 120 17 310 52 318 60 6 6 -51 746 -58
758 -1 1 -38 -9 -82 -23 -159 -50 -277 -68 -398 -62 -108 6 -277 41 -351 72
-42 17 -44 18 -44 8z"/>
</g>
</svg>
